{
	"asset":{
		"generator":"Khronos glTF Blender I/O v3.6.27",
		"version":"2.0"
	},
	"extensionsUsed":[
		"KHR_materials_transmission",
		"KHR_materials_ior",
		"KHR_materials_emissive_strength"
	],
	"scene":0,
	"scenes":[
		{
			"name":"Scene",
			"nodes":[
				0,
				1,
				2,
				3,
				4,
				5,
				6,
				7,
				8,
				9,
				10
			]
		}
	],
	"nodes":[
		{
			"mesh":0,
			"name":"WheelsBack",
			"rotation":[
				0,
				0,
				-0.7071068286895752,
				0.7071068286895752
			],
			"scale":[
				0.7244235277175903,
				0.4306482970714569,
				0.7244235277175903
			],
			"translation":[
				0,
				0.692232608795166,
				1.946024775505066
			]
		},
		{
			"mesh":1,
			"name":"WheelR-F",
			"rotation":[
				0,
				0,
				-0.7071068286895752,
				0.7071068286895752
			],
			"scale":[
				0.7244235277175903,
				0.4306482970714569,
				0.7244235277175903
			],
			"translation":[
				1.9912006855010986,
				0.688404381275177,
				-2.6929759979248047
			]
		},
		{
			"mesh":2,
			"name":"WheelL-F",
			"rotation":[
				0,
				0,
				-0.7071068286895752,
				0.7071068286895752
			],
			"scale":[
				0.7244235277175903,
				0.4306482970714569,
				0.7244235277175903
			],
			"translation":[
				-1.9912004470825195,
				0.6885594129562378,
				-2.692976236343384
			]
		},
		{
			"mesh":3,
			"name":"Trank",
			"rotation":[
				-0.0004502214433159679,
				0,
				0,
				1
			],
			"translation":[
				0,
				1.4758936166763306,
				4.000073432922363
			]
		},
		{
			"mesh":4,
			"name":"Text-Taxi",
			"rotation":[
				0,
				-0.7071068286895752,
				0.7071068286895752,
				1.1520232590100932e-07
			],
			"scale":[
				0.6154183745384216,
				0.6154183745384216,
				0.6154183745384216
			],
			"translation":[
				0.1575697958469391,
				4.040432453155518,
				-0.1146947592496872
			]
		},
		{
			"mesh":5,
			"name":"text-Tax",
			"rotation":[
				0.7071068286895752,
				0,
				0,
				0.7071068286895752
			],
			"scale":[
				0.6154183745384216,
				0.6154183745384216,
				0.6154183745384216
			],
			"translation":[
				-0.15192018449306488,
				4.040432453155518,
				0.10330275446176529
			]
		},
		{
			"extras":{
				"BoolToolRoot":1
			},
			"mesh":6,
			"name":"hundleDoor",
			"translation":[
				0,
				1.7778806686401367,
				0.5396288633346558
			]
		},
		{
			"extras":{
				"BoolToolRoot":1
			},
			"mesh":7,
			"name":"Flaps",
			"scale":[
				1.351062536239624,
				1.351062536239624,
				1.3686294555664062
			],
			"translation":[
				0,
				1.1529160737991333,
				-0.388153076171875
			]
		},
		{
			"mesh":8,
			"name":"CarHood",
			"rotation":[
				0.0007174612837843597,
				0,
				0,
				1
			],
			"translation":[
				0,
				1.7580592632293701,
				-3.3987185955047607
			]
		},
		{
			"extras":{
				"BoolToolRoot":1
			},
			"mesh":9,
			"name":"bodyCar.001",
			"translation":[
				0,
				2.856564521789551,
				0
			]
		},
		{
			"extras":{
				"BoolToolRoot":1
			},
			"mesh":10,
			"name":"bodyCar",
			"translation":[
				-0.00040625850670039654,
				1.8542879819869995,
				-0.7390183210372925
			]
		}
	],
	"materials":[
		{
			"doubleSided":true,
			"name":"mix",
			"pbrMetallicRoughness":{
				"metallicFactor":0,
				"roughnessFactor":0.5
			}
		},
		{
			"alphaMode":"BLEND",
			"doubleSided":true,
			"extensions":{
				"KHR_materials_transmission":{
					"transmissionFactor":0.9545454382896423
				},
				"KHR_materials_ior":{
					"ior":1.5500000715255737
				}
			},
			"name":"glass",
			"pbrMetallicRoughness":{
				"baseColorFactor":[
					0.02774452418088913,
					0.02774452418088913,
					0.02774452418088913,
					1
				],
				"metallicFactor":0,
				"roughnessFactor":0.20000000298023224
			}
		},
		{
			"doubleSided":true,
			"emissiveFactor":[
				1,
				0.004242513328790665,
				0.004242513328790665
			],
			"extensions":{
				"KHR_materials_emissive_strength":{
					"emissiveStrength":2
				}
			},
			"name":"redLight",
			"pbrMetallicRoughness":{
				"baseColorFactor":[
					0.8000000715255737,
					0.0015221880748867989,
					0,
					1
				],
				"metallicFactor":0,
				"roughnessFactor":0.5
			}
		},
		{
			"doubleSided":true,
			"name":"taxi",
			"pbrMetallicRoughness":{
				"baseColorFactor":[
					0.7699999809265137,
					0.7699999809265137,
					0.7699999809265137,
					1
				],
				"metallicFactor":0
			}
		},
		{
			"doubleSided":true,
			"name":"Material.001",
			"pbrMetallicRoughness":{
				"baseColorFactor":[
					0.02496694028377533,
					0.02496694028377533,
					0.02496694028377533,
					1
				],
				"metallicFactor":0.9818181991577148,
				"roughnessFactor":0.5
			}
		},
		{
			"doubleSided":true,
			"emissiveFactor":[
				1,
				0.7840878963470459,
				0.1672804206609726
			],
			"extensions":{
				"KHR_materials_emissive_strength":{
					"emissiveStrength":1.7999999523162842
				}
			},
			"name":"Material.002",
			"pbrMetallicRoughness":{
				"baseColorFactor":[
					0,
					0,
					0,
					1
				]
			}
		}
	],
	"meshes":[
		{
			"name":"\ufe93\ufeae\ufe8b\ufe8d\ufea9.002",
			"primitives":[
				{
					"attributes":{
						"POSITION":0,
						"NORMAL":1,
						"TEXCOORD_0":2
					},
					"indices":3,
					"material":0
				}
			]
		},
		{
			"name":"\ufe93\ufeae\ufe8b\ufe8d\ufea9.001",
			"primitives":[
				{
					"attributes":{
						"POSITION":4,
						"NORMAL":5,
						"TEXCOORD_0":6
					},
					"indices":7,
					"material":0
				}
			]
		},
		{
			"name":"\ufe93\ufeae\ufe8b\ufe8d\ufea9.003",
			"primitives":[
				{
					"attributes":{
						"POSITION":8,
						"NORMAL":9,
						"TEXCOORD_0":10
					},
					"indices":11,
					"material":0
				}
			]
		},
		{
			"name":"\ufe90\ufecc\ufedc\ufee3.003",
			"primitives":[
				{
					"attributes":{
						"POSITION":12,
						"NORMAL":13,
						"TEXCOORD_0":14,
						"TANGENT":15
					},
					"indices":16,
					"material":1
				},
				{
					"attributes":{
						"POSITION":17,
						"NORMAL":18,
						"TEXCOORD_0":19,
						"TANGENT":20
					},
					"indices":21,
					"material":2
				}
			]
		},
		{
			"name":"\ufeba\ufee7.001",
			"primitives":[
				{
					"attributes":{
						"POSITION":22,
						"NORMAL":23,
						"TEXCOORD_0":24,
						"TANGENT":25
					},
					"indices":26,
					"material":3
				}
			]
		},
		{
			"name":"\ufeba\ufee7",
			"primitives":[
				{
					"attributes":{
						"POSITION":27,
						"NORMAL":28,
						"TEXCOORD_0":29,
						"TANGENT":30
					},
					"indices":26,
					"material":3
				}
			]
		},
		{
			"name":"\ufe90\ufecc\ufedc\ufee3.002",
			"primitives":[
				{
					"attributes":{
						"POSITION":31,
						"NORMAL":32,
						"TEXCOORD_0":33,
						"TANGENT":34
					},
					"indices":35,
					"material":0
				}
			]
		},
		{
			"name":"\ufe90\ufecc\ufedc\ufee3.005",
			"primitives":[
				{
					"attributes":{
						"POSITION":36,
						"NORMAL":37,
						"TEXCOORD_0":38,
						"TANGENT":39
					},
					"indices":40,
					"material":0
				}
			]
		},
		{
			"name":"\ufe90\ufecc\ufedc\ufee3.004",
			"primitives":[
				{
					"attributes":{
						"POSITION":41,
						"NORMAL":42,
						"TEXCOORD_0":43,
						"TANGENT":44
					},
					"indices":45,
					"material":4
				}
			]
		},
		{
			"name":"\ufe90\ufecc\ufedc\ufee3.008",
			"primitives":[
				{
					"attributes":{
						"POSITION":46,
						"NORMAL":47,
						"TEXCOORD_0":48,
						"TANGENT":49
					},
					"indices":50,
					"material":1
				}
			]
		},
		{
			"name":"\ufe90\ufecc\ufedc\ufee3",
			"primitives":[
				{
					"attributes":{
						"POSITION":51,
						"NORMAL":52,
						"TEXCOORD_0":53
					},
					"indices":54,
					"material":4
				},
				{
					"attributes":{
						"POSITION":55,
						"NORMAL":56,
						"TEXCOORD_0":57
					},
					"indices":58,
					"material":5
				}
			]
		}
	],
	"accessors":[
		{
			"bufferView":0,
			"componentType":5126,
			"count":432,
			"max":[
				0.9669957160949707,
				4.865384101867676,
				0.9819127321243286
			],
			"min":[
				-0.9669955372810364,
				-4.8653764724731445,
				-0.9819129705429077
			],
			"type":"VEC3"
		},
		{
			"bufferView":1,
			"componentType":5126,
			"count":432,
			"type":"VEC3"
		},
		{
			"bufferView":2,
			"componentType":5126,
			"count":432,
			"type":"VEC2"
		},
		{
			"bufferView":3,
			"componentType":5123,
			"count":1488,
			"type":"SCALAR"
		},
		{
			"bufferView":4,
			"componentType":5126,
			"count":216,
			"max":[
				0.9738847017288208,
				0.24320608377456665,
				0.9891232252120972
			],
			"min":[
				-0.9743078947067261,
				-0.9613742232322693,
				-0.9891232252120972
			],
			"type":"VEC3"
		},
		{
			"bufferView":5,
			"componentType":5126,
			"count":216,
			"type":"VEC3"
		},
		{
			"bufferView":6,
			"componentType":5126,
			"count":216,
			"type":"VEC2"
		},
		{
			"bufferView":7,
			"componentType":5123,
			"count":744,
			"type":"SCALAR"
		},
		{
			"bufferView":8,
			"componentType":5126,
			"count":216,
			"max":[
				0.9740962982177734,
				0.9613737463951111,
				0.9891232252120972
			],
			"min":[
				-0.9740961790084839,
				-0.24320581555366516,
				-0.9891232252120972
			],
			"type":"VEC3"
		},
		{
			"bufferView":9,
			"componentType":5126,
			"count":216,
			"type":"VEC3"
		},
		{
			"bufferView":10,
			"componentType":5126,
			"count":216,
			"type":"VEC2"
		},
		{
			"bufferView":11,
			"componentType":5123,
			"count":744,
			"type":"SCALAR"
		},
		{
			"bufferView":12,
			"componentType":5126,
			"count":650,
			"max":[
				1.7844009399414062,
				0.5033535957336426,
				0.09655022621154785
			],
			"min":[
				-1.7844009399414062,
				-0.33024120330810547,
				-1.9455657005310059
			],
			"type":"VEC3"
		},
		{
			"bufferView":13,
			"componentType":5126,
			"count":650,
			"type":"VEC3"
		},
		{
			"bufferView":14,
			"componentType":5126,
			"count":650,
			"type":"VEC2"
		},
		{
			"bufferView":15,
			"componentType":5126,
			"count":650,
			"type":"VEC4"
		},
		{
			"bufferView":16,
			"componentType":5123,
			"count":1164,
			"type":"SCALAR"
		},
		{
			"bufferView":17,
			"componentType":5126,
			"count":64,
			"max":[
				1.7309859991073608,
				0.19458383321762085,
				0.06397128105163574
			],
			"min":[
				-1.7309859991073608,
				-0.22119122743606567,
				0.04087722301483154
			],
			"type":"VEC3"
		},
		{
			"bufferView":18,
			"componentType":5126,
			"count":64,
			"type":"VEC3"
		},
		{
			"bufferView":19,
			"componentType":5126,
			"count":64,
			"type":"VEC2"
		},
		{
			"bufferView":20,
			"componentType":5126,
			"count":64,
			"type":"VEC4"
		},
		{
			"bufferView":21,
			"componentType":5123,
			"count":96,
			"type":"SCALAR"
		},
		{
			"bufferView":22,
			"componentType":5126,
			"count":310,
			"max":[
				1.1644999980926514,
				0,
				0.32350000739097595
			],
			"min":[
				-0.6514999866485596,
				0,
				-0.36750003695487976
			],
			"type":"VEC3"
		},
		{
			"bufferView":23,
			"componentType":5126,
			"count":310,
			"type":"VEC3"
		},
		{
			"bufferView":24,
			"componentType":5126,
			"count":310,
			"type":"VEC2"
		},
		{
			"bufferView":25,
			"componentType":5126,
			"count":310,
			"type":"VEC4"
		},
		{
			"bufferView":26,
			"componentType":5123,
			"count":918,
			"type":"SCALAR"
		},
		{
			"bufferView":27,
			"componentType":5126,
			"count":310,
			"max":[
				1.1644999980926514,
				0,
				0.32350000739097595
			],
			"min":[
				-0.6514999866485596,
				0,
				-0.36750003695487976
			],
			"type":"VEC3"
		},
		{
			"bufferView":28,
			"componentType":5126,
			"count":310,
			"type":"VEC3"
		},
		{
			"bufferView":29,
			"componentType":5126,
			"count":310,
			"type":"VEC2"
		},
		{
			"bufferView":30,
			"componentType":5126,
			"count":310,
			"type":"VEC4"
		},
		{
			"bufferView":31,
			"componentType":5126,
			"count":96,
			"max":[
				2.057894468307495,
				0.06758058071136475,
				1.0275459289550781
			],
			"min":[
				-2.057894468307495,
				-0.06758064031600952,
				-1.0275460481643677
			],
			"type":"VEC3"
		},
		{
			"bufferView":32,
			"componentType":5126,
			"count":96,
			"type":"VEC3"
		},
		{
			"bufferView":33,
			"componentType":5126,
			"count":96,
			"type":"VEC2"
		},
		{
			"bufferView":34,
			"componentType":5126,
			"count":96,
			"type":"VEC4"
		},
		{
			"bufferView":35,
			"componentType":5123,
			"count":144,
			"type":"SCALAR"
		},
		{
			"bufferView":36,
			"componentType":5126,
			"count":752,
			"max":[
				1.5543781518936157,
				0.41761839389801025,
				2.41288423538208
			],
			"min":[
				-1.5543781518936157,
				-0.5443004369735718,
				-2.403050422668457
			],
			"type":"VEC3"
		},
		{
			"bufferView":37,
			"componentType":5126,
			"count":752,
			"type":"VEC3"
		},
		{
			"bufferView":38,
			"componentType":5126,
			"count":752,
			"type":"VEC2"
		},
		{
			"bufferView":39,
			"componentType":5126,
			"count":752,
			"type":"VEC4"
		},
		{
			"bufferView":40,
			"componentType":5123,
			"count":1128,
			"type":"SCALAR"
		},
		{
			"bufferView":41,
			"componentType":5126,
			"count":36,
			"max":[
				1.8682414293289185,
				0.19604013860225677,
				1.4307364225387573
			],
			"min":[
				-1.8682414293289185,
				-0.1960401087999344,
				-1.4307363033294678
			],
			"type":"VEC3"
		},
		{
			"bufferView":42,
			"componentType":5126,
			"count":36,
			"type":"VEC3"
		},
		{
			"bufferView":43,
			"componentType":5126,
			"count":36,
			"type":"VEC2"
		},
		{
			"bufferView":44,
			"componentType":5126,
			"count":36,
			"type":"VEC4"
		},
		{
			"bufferView":45,
			"componentType":5123,
			"count":66,
			"type":"SCALAR"
		},
		{
			"bufferView":46,
			"componentType":5126,
			"count":28,
			"max":[
				1.83916437625885,
				0.7487646341323853,
				1.7044528722763062
			],
			"min":[
				-1.839164137840271,
				-0.7541345357894897,
				-1.7044528722763062
			],
			"type":"VEC3"
		},
		{
			"bufferView":47,
			"componentType":5126,
			"count":28,
			"type":"VEC3"
		},
		{
			"bufferView":48,
			"componentType":5126,
			"count":28,
			"type":"VEC2"
		},
		{
			"bufferView":49,
			"componentType":5126,
			"count":28,
			"type":"VEC4"
		},
		{
			"bufferView":50,
			"componentType":5123,
			"count":48,
			"type":"SCALAR"
		},
		{
			"bufferView":51,
			"componentType":5126,
			"count":2778,
			"max":[
				2.4718124866485596,
				2.4850261211395264,
				4.962647438049316
			],
			"min":[
				-2.4710001945495605,
				-1.4427250623703003,
				-4.248652935028076
			],
			"type":"VEC3"
		},
		{
			"bufferView":52,
			"componentType":5126,
			"count":2778,
			"type":"VEC3"
		},
		{
			"bufferView":53,
			"componentType":5126,
			"count":2778,
			"type":"VEC2"
		},
		{
			"bufferView":54,
			"componentType":5123,
			"count":5478,
			"type":"SCALAR"
		},
		{
			"bufferView":55,
			"componentType":5126,
			"count":8,
			"max":[
				1.5260684490203857,
				-0.3876836895942688,
				-4.201206207275391
			],
			"min":[
				-1.5252559185028076,
				-0.6719256043434143,
				-4.216305255889893
			],
			"type":"VEC3"
		},
		{
			"bufferView":56,
			"componentType":5126,
			"count":8,
			"type":"VEC3"
		},
		{
			"bufferView":57,
			"componentType":5126,
			"count":8,
			"type":"VEC2"
		},
		{
			"bufferView":58,
			"componentType":5123,
			"count":12,
			"type":"SCALAR"
		}
	],
	"bufferViews":[
		{
			"buffer":0,
			"byteLength":5184,
			"byteOffset":0,
			"target":34962
		},
		{
			"buffer":0,
			"byteLength":5184,
			"byteOffset":5184,
			"target":34962
		},
		{
			"buffer":0,
			"byteLength":3456,
			"byteOffset":10368,
			"target":34962
		},
		{
			"buffer":0,
			"byteLength":2976,
			"byteOffset":13824,
			"target":34963
		},
		{
			"buffer":0,
			"byteLength":2592,
			"byteOffset":16800,
			"target":34962
		},
		{
			"buffer":0,
			"byteLength":2592,
			"byteOffset":19392,
			"target":34962
		},
		{
			"buffer":0,
			"byteLength":1728,
			"byteOffset":21984,
			"target":34962
		},
		{
			"buffer":0,
			"byteLength":1488,
			"byteOffset":23712,
			"target":34963
		},
		{
			"buffer":0,
			"byteLength":2592,
			"byteOffset":25200,
			"target":34962
		},
		{
			"buffer":0,
			"byteLength":2592,
			"byteOffset":27792,
			"target":34962
		},
		{
			"buffer":0,
			"byteLength":1728,
			"byteOffset":30384,
			"target":34962
		},
		{
			"buffer":0,
			"byteLength":1488,
			"byteOffset":32112,
			"target":34963
		},
		{
			"buffer":0,
			"byteLength":7800,
			"byteOffset":33600,
			"target":34962
		},
		{
			"buffer":0,
			"byteLength":7800,
			"byteOffset":41400,
			"target":34962
		},
		{
			"buffer":0,
			"byteLength":5200,
			"byteOffset":49200,
			"target":34962
		},
		{
			"buffer":0,
			"byteLength":10400,
			"byteOffset":54400,
			"target":34962
		},
		{
			"buffer":0,
			"byteLength":2328,
			"byteOffset":64800,
			"target":34963
		},
		{
			"buffer":0,
			"byteLength":768,
			"byteOffset":67128,
			"target":34962
		},
		{
			"buffer":0,
			"byteLength":768,
			"byteOffset":67896,
			"target":34962
		},
		{
			"buffer":0,
			"byteLength":512,
			"byteOffset":68664,
			"target":34962
		},
		{
			"buffer":0,
			"byteLength":1024,
			"byteOffset":69176,
			"target":34962
		},
		{
			"buffer":0,
			"byteLength":192,
			"byteOffset":70200,
			"target":34963
		},
		{
			"buffer":0,
			"byteLength":3720,
			"byteOffset":70392,
			"target":34962
		},
		{
			"buffer":0,
			"byteLength":3720,
			"byteOffset":74112,
			"target":34962
		},
		{
			"buffer":0,
			"byteLength":2480,
			"byteOffset":77832,
			"target":34962
		},
		{
			"buffer":0,
			"byteLength":4960,
			"byteOffset":80312,
			"target":34962
		},
		{
			"buffer":0,
			"byteLength":1836,
			"byteOffset":85272,
			"target":34963
		},
		{
			"buffer":0,
			"byteLength":3720,
			"byteOffset":87108,
			"target":34962
		},
		{
			"buffer":0,
			"byteLength":3720,
			"byteOffset":90828,
			"target":34962
		},
		{
			"buffer":0,
			"byteLength":2480,
			"byteOffset":94548,
			"target":34962
		},
		{
			"buffer":0,
			"byteLength":4960,
			"byteOffset":97028,
			"target":34962
		},
		{
			"buffer":0,
			"byteLength":1152,
			"byteOffset":101988,
			"target":34962
		},
		{
			"buffer":0,
			"byteLength":1152,
			"byteOffset":103140,
			"target":34962
		},
		{
			"buffer":0,
			"byteLength":768,
			"byteOffset":104292,
			"target":34962
		},
		{
			"buffer":0,
			"byteLength":1536,
			"byteOffset":105060,
			"target":34962
		},
		{
			"buffer":0,
			"byteLength":288,
			"byteOffset":106596,
			"target":34963
		},
		{
			"buffer":0,
			"byteLength":9024,
			"byteOffset":106884,
			"target":34962
		},
		{
			"buffer":0,
			"byteLength":9024,
			"byteOffset":115908,
			"target":34962
		},
		{
			"buffer":0,
			"byteLength":6016,
			"byteOffset":124932,
			"target":34962
		},
		{
			"buffer":0,
			"byteLength":12032,
			"byteOffset":130948,
			"target":34962
		},
		{
			"buffer":0,
			"byteLength":2256,
			"byteOffset":142980,
			"target":34963
		},
		{
			"buffer":0,
			"byteLength":432,
			"byteOffset":145236,
			"target":34962
		},
		{
			"buffer":0,
			"byteLength":432,
			"byteOffset":145668,
			"target":34962
		},
		{
			"buffer":0,
			"byteLength":288,
			"byteOffset":146100,
			"target":34962
		},
		{
			"buffer":0,
			"byteLength":576,
			"byteOffset":146388,
			"target":34962
		},
		{
			"buffer":0,
			"byteLength":132,
			"byteOffset":146964,
			"target":34963
		},
		{
			"buffer":0,
			"byteLength":336,
			"byteOffset":147096,
			"target":34962
		},
		{
			"buffer":0,
			"byteLength":336,
			"byteOffset":147432,
			"target":34962
		},
		{
			"buffer":0,
			"byteLength":224,
			"byteOffset":147768,
			"target":34962
		},
		{
			"buffer":0,
			"byteLength":448,
			"byteOffset":147992,
			"target":34962
		},
		{
			"buffer":0,
			"byteLength":96,
			"byteOffset":148440,
			"target":34963
		},
		{
			"buffer":0,
			"byteLength":33336,
			"byteOffset":148536,
			"target":34962
		},
		{
			"buffer":0,
			"byteLength":33336,
			"byteOffset":181872,
			"target":34962
		},
		{
			"buffer":0,
			"byteLength":22224,
			"byteOffset":215208,
			"target":34962
		},
		{
			"buffer":0,
			"byteLength":10956,
			"byteOffset":237432,
			"target":34963
		},
		{
			"buffer":0,
			"byteLength":96,
			"byteOffset":248388,
			"target":34962
		},
		{
			"buffer":0,
			"byteLength":96,
			"byteOffset":248484,
			"target":34962
		},
		{
			"buffer":0,
			"byteLength":64,
			"byteOffset":248580,
			"target":34962
		},
		{
			"buffer":0,
			"byteLength":24,
			"byteOffset":248644,
			"target":34963
		}
	],
	"buffers":[
		{
			"byteLength":248668,
			"uri":"taxi.bin"
		}
	]
}
